<?xml version="1.0" encoding="UTF-8"?><svg id="Layer_2" xmlns="http://www.w3.org/2000/svg" viewBox="0 0 82.7 94.97"><defs><style>.cls-1{fill:#141311;}.cls-2,.cls-3{fill:#bfbbba;}.cls-4{fill:#403c38;}.cls-5{fill:#020202;}.cls-6{fill:#dbdada;}.cls-3{opacity:.43;}.cls-7{fill:#3c3733;}.cls-8{fill:#eebf55;}.cls-9{fill:#453f3d;}.cls-10{fill:#010101;}</style></defs><g id="Layer_1-2"><path class="cls-2" d="m1.85,70.72s6.24-13.55,6.83-16.73,3.52-16.1,3.52-16.1c0,0,13.84,13.95,21.95,15.93s16.68,2.92,20.39,1.95,13.05-4.16,15.38-7.07,3.34-2.23,3.34-2.23c0,0,1.34,18.26,5.16,24.79s2.17,13.4,0,13.47-11.72,8.9-17.95,7.98-8.78.08-19.5-5.92-12.54-1.18-14.13-3.09-6.15-6.24-11.87-6.57-14.71.6-14.22-4.37"/><path class="cls-6" d="m12.21,39.18l4.26-15.24,1.48-7.14,2.13-13s1.52-1,4.36,0,10.26,6.94,14.55,6.47,14.23,1.15,14.76.84,4.49-2.98,6.51-5.64,2.5-6,5.26-3.33,6.69,21.81,6.69,21.81l1.08,22.53s-28.13,36.1-61.07-7.29Z"/><path d="m70.79,9.01c.3,1.08.6,2.17.91,3.25.69,2.45,1.38,4.91,2.07,7.36.18,1.18.37,2.35.55,3.53.1,1.53.19,3.07.31,4.6.02.28.2.55.3.83,0,.45,0,.91,0,1.36-.02.54-.05,1.08-.04,1.62.07,4.45.15,8.89.22,13.34-.25.47-.56.91-.75,1.41-.19.49-.25,1.02-.37,1.53-.16-.01-.32-.02-.47-.03-.09-.44-.23-.88-.24-1.32-.03-1.49.03-2.98-.03-4.46-.04-.88-.1-1.84-1.29-2.01l-.09-.82c-.06-2.08-.12-4.17-.18-6.25.34-.26.68-.53,1.02-.79-.33-.16-.67-.33-1-.49-.1-.48-.2-.97-.31-1.45-.37-3.66-.53-7.36-1.17-10.98-.55-3.09-1.59-6.09-2.52-9.1-.56-1.82-1.2-3.64-2.06-5.34-.85-1.7-1.61-1.69-2.73-.21-2.11,2.78-4.14,5.62-6.29,8.37-.32.42-1.21.85-1.59.69-3.21-1.3-6.64-1.21-9.97-1.69-.75-.52-1.43-1.21-2.26-1.5-.68-.24-1.8-.47-1.81.96-1.8.1-3.61.19-5.41.29-1.18-.61-2.36-1.22-3.53-1.83-.29-.2-.57-.4-.87-.59-1.92-1.25-3.78-2.58-5.78-3.7-1.03-.58-2.12-1.66-3.46-.96-1.3.68-1.53,2-1.57,3.38-.05,1.61-.19,3.21-.29,4.81-.95.43-.44,1.07-.23,1.66-.07,1.44-.15,2.88-.22,4.32-.3.72-.6,1.44-.91,2.16-1.85,3.2-2.56,6.72-2.9,10.34-.36,1.18-.71,2.36-1.07,3.53-.04.08-.07.16-.07.25-.07.09-.14.19-.21.28-.57,2.63-1.14,5.26-1.7,7.89-.37,1.27-.73,2.53-1.1,3.8-.24.91-.48,1.82-.72,2.73-.03.27-.07.53-.1.8-.08.64-.16,1.27-.25,1.91-.45,1.36-.91,2.72-1.36,4.08l-2.71,5.98c-.61,1.63-1.22,3.27-1.83,4.9-1.05,1.6-.96,3.42-.79,5.18.13,1.32,1.28,2.43,2.43,2.4,2.27-.06,4.54-.23,6.8-.44,1.86-.17,3.73-.25,5.19,1.06,1.55,1.4,2.84,3.07,4.36,4.51,1.4,1.33,2.78,2.83,5.03,2.47,1.54-.34,3.09-.69,4.63-1.03,1.08-.2,2.15-.4,3.23-.6.63.12,1.26.24,1.89.35.72.55,1.45,1.09,2.17,1.64-.01.09.01.17.07.23.25.27.5.55.75.82.3.43.6.86.9,1.29.26.38.52.77.78,1.15.98.92,1.95,1.83,2.93,2.75.27.1.54.19.81.29.37.18.74.36,1.1.54.09.13.18.26.27.39.09-.13.18-.26.27-.39.27,0,.54,0,.81,0,.64,1.47,1.87,2.18,3.35,2.37,2.04.27,4.1.41,6.15.56,1.62.12,2.31.62,2.44,1.86-1.9,0-3.8,0-5.69,0l-.47-.46c-.12.15-.23.3-.35.45-.18.03-.36.07-.54.1-.81-.11-1.62-.22-2.44-.32-.72-.09-1.45-.15-2.17-.23-.63-.12-1.26-.23-1.89-.35-.72-.27-1.45-.54-2.17-.82-.18-.18-.36-.36-.54-.54-.36-.18-.71-.35-1.07-.53-.82-.82-1.64-1.64-2.46-2.46-.17-.18-.35-.35-.52-.53-.18-.27-.37-.54-.55-.81-.43-.56-.89-1.1-1.29-1.68-1.08-1.53-2.48-1.68-4.23-1.33-2.24.44-4.54.7-6.83.81-2.52.12-4.75-.75-6.5-2.66-1.4-1.52-2.79-3.05-4.26-4.5-.39-.38-1.07-.66-1.61-.65-2.42.01-4.84.26-7.25.2-1.46-.04-2.98-.32-4.36-.82-1.77-.65-2.65-2.22-3.06-4.03.03-.82.06-1.63.09-2.45.23-.16.46-.32.68-.48-.23-.2-.46-.41-.68-.61.09-.27.18-.54.27-.82,1.01-.03,1.3-.56,1.14-1.52-.06-.35.07-.78.23-1.12.51-1.08,1.12-2.12,1.59-3.22.1-.23-.21-.64-.33-.96.54-1.18,1.08-2.36,1.62-3.54.16-.09.31-.19.47-.28-.13-.08-.26-.16-.39-.25.36-.82.72-1.63,1.08-2.45.92-.19,1.51-.5.48-1.37.03-.18.05-.36.08-.54.07-.1.14-.19.21-.29.29-.99.58-1.98.87-2.97,1.33-.38,1.59-1.51,1.85-2.64.13-.56.15-1.17.41-1.66.56-1.08.28-1.6-.9-1.68.71-3.49,1.42-6.98,2.13-10.46.03-.15.15-.28.22-.43.37-.39.96-.73,1.05-1.17.29-1.38.34-2.8,1.08-4.09.14-.24-.32-.83-.5-1.26.09-.42.18-.84.28-1.27.11-.12.23-.24.34-.35,1.35-.34,1.59-.97.74-1.92.18-.63.35-1.26.53-1.89.12-.18.25-.36.37-.54.5-.43,1.29-.78,1.46-1.32.52-1.68.9-3.42,1.17-5.16.22-1.36.2-2.76.29-4.14.03-.56.08-1.13-.76-1.08,0-.81-.01-1.63-.02-2.44.1-.18.2-.37.29-.55.13-.09.26-.18.39-.27-.13-.09-.26-.18-.39-.27.35-1.08.7-2.16,1.05-3.23.27-.27.54-.55.81-.82.27-.27.54-.54.81-.81,1.4-.61,2.73-.32,4.05.27.91.43,1.82.85,2.72,1.28.81.39,1.62.78,2.43,1.17.63.36,1.27.72,1.9,1.08.27.18.54.36.82.54.45.36.9.72,1.35,1.09.29.22.59.44.88.67.39.21.78.41,1.18.62.13.02.25.05.38.07.27.07.55.13.82.2,1.27-.18,2.53-.36,3.8-.54.27,0,.54,0,.81,0,1.52.02,3.04.02,4.56.06.47.01.94.14,1.41.22.72.09,1.45.18,2.17.27.81.2,1.62.41,2.43.61.76.26,1.53.75,2.28.73.69-.02,1.6-.41,2.01-.95,1.41-1.84,2.62-3.84,3.97-5.73.62-.87,1.33-1.69,2.11-2.42,1.11-1.05,3.19-.8,4.68.48.41.35.79.72,1.18,1.09.55,1.09,1.09,2.17,1.64,3.26.21.63.42,1.26.63,1.89.15.55.3,1.1.45,1.64Z"/><path class="cls-10" d="m17.18,9.82c.84-.05.79.52.76,1.08-.08,1.38-.07,2.78-.29,4.14-.28,1.74-.65,3.48-1.17,5.16-.17.54-.95.88-1.46,1.32,0-.18-.02-.36-.03-.53.36-1,.72-1.99,1.09-2.99.34-2.45.67-4.9,1.01-7.35.03-.27.06-.54.09-.82Z"/><path class="cls-10" d="m8.77,44.89c1.19.08,1.47.6.9,1.68-.25.49-.28,1.11-.41,1.66-.27,1.13-.52,2.26-1.85,2.64.45-1.99.9-3.99,1.36-5.98Z"/><path class="cls-10" d="m2.99,62.55c.12.33.43.73.33.96-.47,1.1-1.08,2.13-1.59,3.22-.16.34-.29.76-.23,1.12.16.96-.13,1.48-1.14,1.52.2-.88.28-1.81.62-2.64.59-1.43,1.33-2.79,2.01-4.17Z"/><path d="m12.76,27.48c.18.43.64,1.02.5,1.26-.74,1.29-.79,2.71-1.08,4.09-.09.44-.69.78-1.05,1.17.29-1.53.59-3.06.88-4.6.07-.19.13-.37.2-.56.18-.46.37-.91.55-1.37Z"/><path class="cls-10" d="m14.12,23.94c.85.94.61,1.58-.74,1.92.06-.36.12-.73.19-1.09.18-.28.37-.55.55-.83Z"/><path class="cls-10" d="m6.26,54.67c1.03.87.44,1.18-.48,1.37.16-.46.32-.91.48-1.37Z"/><path class="cls-10" d="m.09,70.18c.23.2.46.41.68.61-.23.16-.46.32-.68.48,0-.36,0-.73,0-1.09Z"/><path d="m36.66,8.41c-.27-.07-.55-.13-.82-.2.27.07.55.13.82.2Z"/><path class="cls-10" d="m4.7,58.49c.13.08.26.16.39.25-.16.09-.31.19-.47.28.03-.18.06-.35.08-.53Z"/><path d="m12.21,28.85l-.2.56.2-.56Z"/><path class="cls-10" d="m6.55,53.85c-.07.1-.14.19-.21.29.07-.1.14-.19.21-.29Z"/><path d="m43.99,92.72c.18.18.36.36.54.54-.18-.18-.36-.36-.54-.54Z"/><path class="cls-10" d="m63.5,94.7c-1.08.06-2.17.12-3.25.18-.12-1.24-.81-1.74-2.44-1.86-2.05-.16-4.11-.3-6.15-.56-1.48-.19-2.71-.9-3.35-2.37.63,0,1.27,0,1.9,0,.35.26.67.65,1.06.74.99.25,2.01.4,3.03.52,2.64.31,5.29.74,7.95.15.74-.16,1.5-.21,2.23-.38.5-.12.97-.35,1.46-.53.48-.1.99-.13,1.42-.33.77-.36,1.7-.7,1.01-1.88.92-.71,1.84-1.43,2.75-2.14.45-.36.91-.72,1.36-1.09.08-.01.15-.02.23-.04.14.04.29.07.43.11-.03-.16-.05-.32-.08-.48,0,0,.08-.08.08-.08,1.27.2,2.73-.63,3.39-1.92.48-.28,1.03-.49,1.44-.84,2-1.71,2.12-3.91,1.52-6.27-.09-.71-.11-1.43-.27-2.11-.27-1.12-.61-2.22-1-3.3-.06-.18-.54-.2-.82-.3-1.2-3.26-2.4-6.52-3.61-9.78.1-.85.18-1.7.3-2.55.13-.94.4-1.78,1.58-1.81.12.36.25.72.37,1.09l.28,1.36c.15.73.31,1.46.46,2.18.37.91.73,1.83,1.1,2.74.18.27.36.54.55.81.63,1,1.26,2,1.9,3,.08.09.16.17.24.26.18.45.36.9.54,1.36.12.63.24,1.26.36,1.89.44,2.27,1.17,4.53,1.25,6.82.15,4.35-1.83,7.67-5.69,9.78-.34.19-.68.39-1.02.58-.81.39-1.74.64-2.41,1.19-1.52,1.24-2.92,2.63-4.37,3.96-.37.25-.73.49-1.1.74-.99.3-1.98.6-2.97.9-.54.09-1.08.18-1.63.27Z"/><path class="cls-5" d="m71.87,42.99c.03-1,.06-1.99.09-2.99,1.19.18,1.26,1.14,1.29,2.01.06,1.49,0,2.98.03,4.46,0,.44.16.88.24,1.32.16.01.32.02.47.03.12-.51.18-1.04.37-1.53.19-.49.5-.94.75-1.41.11,2.7.2,5.39.32,8.09.04.93.15,1.86.22,2.79-1.18.03-1.45.87-1.58,1.81-.11.85-.2,1.7-.3,2.55-.08,0-.15,0-.22-.02-.39-2.63-.77-5.25-1.16-7.88-.09-.45-.18-.9-.27-1.35.01-.85.07-1.71.03-2.56-.08-1.78-.2-3.55-.31-5.32Z"/><path class="cls-5" d="m42.89,11.76c-.63-.12-1.27-.24-1.9-.36.01-1.42,1.13-1.19,1.81-.96.83.28,1.51.98,2.26,1.5-.72-.06-1.45-.12-2.17-.18Z"/><path class="cls-5" d="m71.69,32.93c0-.43,0-.85.01-1.28.33.16.67.33,1,.49-.34.26-.68.53-1.02.79Z"/><path class="cls-10" d="m20.08,12.81c-.08.55-.15,1.11-.23,1.66-.21-.59-.72-1.23.23-1.66Z"/><path class="cls-10" d="m54.55,94.87c-.27,0-.54,0-.81,0,.12-.15.23-.3.35-.45l.47.46Z"/><path class="cls-10" d="m17.45,6.82v-.54c.13.09.26.18.39.27-.13.09-.26.18-.39.27Z"/><path class="cls-10" d="m46.96,90.07c.18,0,.36,0,.54,0-.09.13-.18.26-.27.39-.09-.13-.18-.26-.27-.39Z"/><path class="cls-6" d="m14.68,35.08c-.07.09-.14.19-.21.28.07-.09.14-.19.21-.28Z"/><path class="cls-5" d="m50.22,90.07c.72-.03,1.44-.05,2.16-.08,2.59.67,5.18.9,7.88.5,1.85-.27,3.79.03,5.69.08-.49.18-.96.41-1.46.53-.73.17-1.5.22-2.23.38-2.66.59-5.31.16-7.95-.15-1.02-.12-2.03-.27-3.03-.52-.39-.1-.71-.49-1.06-.74Z"/><path class="cls-1" d="m65.94,90.58c-1.9-.05-3.84-.35-5.69-.08-2.7.4-5.28.17-7.88-.5.64-.1,1.27-.19,1.91-.29.63,0,1.26,0,1.9,0,.27,0,.54,0,.81,0,1.63,0,3.25,0,4.88,0,2.25.31,4.26-.46,6.24-1.36.08.04.17.05.26.02.69,1.17-.24,1.52-1.01,1.88-.43.2-.95.22-1.42.33Z"/><path class="cls-5" d="m79.49,75.62c-.7-1.91-1.4-3.81-2.1-5.72.29.1.76.12.82.3.39,1.08.73,2.19,1,3.3.17.69.19,1.41.27,2.11Z"/><path class="cls-1" d="m73.14,84.65c.5-.56,1.01-1.12,1.51-1.68.62-.08,1.25-.16,1.87-.24-.66,1.29-2.11,2.12-3.39,1.92Z"/><path class="cls-1" d="m72.72,85.11c.12-.12.23-.25.35-.37.03.16.05.32.08.48-.14-.04-.29-.07-.43-.11Z"/><path class="cls-9" d="m55.33,30.75c-.1-2.16,1.1-3.53,2.78-4.61,1.95-.18,3.66.16,4.61,2.15-1.14.62-.25,1.45-.15,2.13.15.97.23,1.74-.79,2.29-1.54.83-2.93,1.01-3.56.1-.81-1.18-1.25-.5-1.8.13-.07,0-.15-.01-.22-.02l-.83-1.93c0-.08-.01-.16-.05-.24Z"/><path class="cls-4" d="m56.43,32.94c.55-.63.99-1.31,1.8-.13.62.91,2.02.74,3.56-.1,1.02-.55.94-1.32.79-2.29-.1-.68-.99-1.51.15-2.13.28,1.64.55,3.27.83,4.91-.3.72-.6,1.44-.89,2.17-2.19,1.61-5.61.28-6.23-2.43Z"/><path class="cls-9" d="m27.99,36.71c-1.58-1.87-1.48-4.76.22-6.57.3-.32.58-.67.87-1.01,1.29-1.29,2.77-2.21,4.6-2.49,1.41.03,1.42,1.4,2.05,2.17.21.47.42.94.63,1.41-.01.9-.02,1.79-.03,2.69-.17.44-.33.89-.5,1.33-.07.1-.14.21-.21.31-.11.26-.22.52-.33.78-.54.49-1.08.98-1.62,1.46-.09.07-.18.14-.28.21h0c-.67.27-1.33.64-2.03.8-1.31.3-2.41-.22-3.38-1.09Z"/><path class="cls-7" d="m33.7,47.06c.08-.73.16-1.47.25-2.2.09,0,.18.01.26.02.44.55.88,1.1,1.32,1.65.06.21.06.47.18.64,2.14,2.85,5.04,4.25,8.56,4.45-.1.76-.2,1.53-.29,2.29-.18,0-.35,0-.53,0-.18-.03-.36-.06-.54-.09-.06-.86-.42-1.03-1.09-.48-.54-.08-1.08-.16-1.62-.24-.9-.37-1.8-.73-2.7-1.1-.27-.19-.55-.39-.82-.58,0,0,0,0,0,0-.27-.27-.54-.55-.8-.82-.71-1.18-1.43-2.36-2.14-3.54Z"/><path class="cls-7" d="m35.84,50.6c.27.27.54.55.8.82-.27-.27-.54-.55-.8-.82Z"/><path class="cls-9" d="m33.67,36.79c-.09.07-.18.14-.28.21.09-.07.18-.14.28-.21Z"/><path class="cls-9" d="m35.83,34.24c-.07.1-.14.21-.21.31.07-.1.14-.21.21-.31Z"/><path class="cls-4" d="m47.24,40.25c.74.29,1.05,1.53,2.17,1.02.27,0,.54,0,.81,0l1.92-2.04c.89-.11,1.68-.15,1.94,1.05.08.37.64.69,1.04.93.79.47,1.62.86,2.43,1.28.69.66,1.99.14,2.71-1.08.73.09,1.54-.94,2.18.18.07.1.14.21.21.31,0,.19,0,.37,0,.56-.07.1-.14.19-.2.29,0,0,0,0,0,0-.76-.08-1.3,1.19-2.19.36-.09.22-.18.44-.27.66-.4.05-.95-.05-1.18.17-1.18,1.19-2.19.51-3.24-.15-1.38-.87-2.79-1.22-4.44-.61-.75.28-1.68.08-2.53.1.1-.37.2-.73.37-1.32-1.48.19-1.52-.82-1.72-1.69Z"/><path class="cls-9" d="m59.98,43.75c.09-.22.18-.44.27-.66.88.84,1.43-.44,2.19-.36-.09.52-.14,1.05-.27,1.56-.41,1.54-.34,3.01.48,4.41-1.25.83-1.92,2.01-2.12,3.49l-.12.03h-.13c-1.72-1.62-3.05-1.72-4.91-.41-.25.18-.53.3-.8.45.37-.48.65-1.12,1.13-1.39,1-.55,1.89-1.03,1.3-2.4.7.47,1.35,1.07,2.11,1.35.53.19,1.22-.06,1.84-.12-.14-.56-.13-1.23-.46-1.65-.59-.77-.91-1.45-.56-2.44.2-.56.04-1.24.05-1.86Z"/><path class="cls-7" d="m60.52,52.19c.2-1.47.87-2.66,2.12-3.49.21.91.42,1.81.63,2.72-.27,1.24-1.12,1.48-2.75.77Z"/><path class="cls-9" d="m60.25,41.4c-.73,1.22-2.03,1.74-2.71,1.08.9-.36,1.81-.72,2.71-1.08Z"/><path class="cls-9" d="m62.64,41.9c-.07-.1-.14-.21-.21-.31.07.1.14.21.21.31Z"/><path class="cls-9" d="m62.43,42.74c.07-.1.14-.19.2-.29-.07.1-.14.19-.2.29Z"/><path class="cls-7" d="m35.78,42.86c.3-.22.59-.45.89-.67,1.22-.67,2.81-.92,3.01-2.72.71-.57,1.08-.2,1.34.48.2.4.33,1.05.63,1.14.93.29,1.93.41,2.9.53.55.06,1.11-.03,1.05.79-1.42.39-2.79.47-4.22-.12-.45-.18-1.19,0-1.65.26-1.42.82-2.78,1.76-4.16,2.65-.19-.56-.37-1.12-.56-1.69,0-.08,0-.17,0-.25,0,0,0,0,0,0,.25-.13.5-.27.74-.41Z"/><path class="cls-4" d="m45.6,42.4c.06-.82-.51-.73-1.05-.79-.98-.11-1.97-.23-2.9-.53-.3-.09-.42-.74-.63-1.14.24.11.52.17.7.33,1.12,1.02,2.31.82,3.53.23,1.2.08,1.13,1.29,1.71,1.93-.45-.01-.91-.02-1.36-.03Z"/><path class="cls-7" d="m46.96,42.44c-.58-.63-.51-1.85-1.71-1.93.48-.25.96-.5,1.44-.75.1.07.2.15.29.22.08.09.17.18.25.27.2.87.24,1.88,1.72,1.69-.16.58-.27.95-.37,1.32-.54-.27-1.08-.55-1.63-.82Z"/><path class="cls-4" d="m46.99,39.99c-.1-.07-.2-.15-.29-.22.1.07.2.15.29.22Z"/><path class="cls-4" d="m41.8,53.34c.67-.55,1.04-.39,1.09.48-.36-.16-.73-.32-1.09-.48Z"/><path class="cls-9" d="m35.02,43.51c.19.56.37,1.12.56,1.69-.02.44-.04.88-.06,1.33-.44-.55-.88-1.1-1.32-1.65,0-.09-.01-.17-.05-.25.2-.38.4-.75.6-1.13,0,0,.13.04.13.04l.13-.02Z"/><path class="cls-8" d="m35.53,46.53c.02-.44.04-.88.06-1.33,1.38-.89,2.73-1.83,4.16-2.65.46-.27,1.2-.44,1.65-.26,1.42.58,2.8.5,4.22.12.45.01.91.02,1.36.03.54.27,1.08.55,1.63.82.85-.02,1.78.18,2.53-.1,1.65-.61,3.05-.26,4.44.61,1.05.66,2.07,1.34,3.24.15.22-.23.78-.12,1.18-.17,0,.63.15,1.31-.05,1.86-.35,1-.04,1.67.56,2.44.32.42.32,1.09.46,1.65-.62.06-1.31.31-1.84.12-.77-.28-1.41-.89-2.11-1.35-3.52,2.09-7.23,3.41-11.41,2.96-.43-.05-.88.12-1.32.18-3.52-.2-6.42-1.6-8.56-4.45-.12-.16-.12-.42-.18-.64Z"/><path class="cls-4" d="m44.26,51.61c.44-.07.89-.23,1.32-.18,4.18.45,7.89-.86,11.41-2.96.59,1.37-.3,1.84-1.3,2.4-.48.27-.76.92-1.13,1.39-1.36.37-2.72.74-4.07,1.11-2.17.18-4.35.35-6.52.53.1-.76.2-1.53.29-2.29Z"/><path class="cls-3" d="m21.99,15.66l8.94-3.71s-8.67-9.15-8.67-3.15"/><path class="cls-3" d="m59.02,13.66l8.25,2.14s-1-14-5-8"/></g></svg>