<?xml version="1.0" encoding="UTF-8"?><svg xmlns="http://www.w3.org/2000/svg" viewBox="0 0 1357.17 1309.61"><defs><style>.cls-1,.cls-2{fill:#9f7d52;}.cls-3{opacity:.34;}.cls-3,.cls-4,.cls-5,.cls-6,.cls-7,.cls-8,.cls-9{fill:#fff;}.cls-4,.cls-10,.cls-11{opacity:.09;}.cls-12{opacity:.47;}.cls-12,.cls-13,.cls-14{fill:#815f3d;}.cls-15{fill:#7b4f23;}.cls-16{fill:#775434;}.cls-5{opacity:.17;}.cls-13,.cls-17{opacity:.89;}.cls-6{opacity:.5;}.cls-18{opacity:.08;}.cls-7{opacity:.42;}.cls-19{fill:#d2b383;}.cls-20,.cls-17{fill:#b68d69;}.cls-21{stroke-width:14px;}.cls-21,.cls-22,.cls-23,.cls-24,.cls-10,.cls-11{fill:none;}.cls-21,.cls-23,.cls-25,.cls-24,.cls-10,.cls-11{stroke-miterlimit:10;}.cls-21,.cls-25,.cls-24{stroke:#815f3d;}.cls-26{fill:#ba914b;}.cls-27{fill:#dcbf8a;}.cls-22{isolation:isolate;}.cls-23{stroke:#775434;stroke-width:8px;}.cls-28{fill:#ebcf92;}.cls-29,.cls-30{fill:#b3925a;}.cls-25{fill:#c6983e;}.cls-25,.cls-10{stroke-width:9px;}.cls-8{opacity:.2;}.cls-9{opacity:.22;}.cls-24{stroke-width:80px;}.cls-31{fill:#82613e;opacity:.31;}.cls-31,.cls-2,.cls-30{mix-blend-mode:multiply;}.cls-10,.cls-11{stroke:#fff;}.cls-2{opacity:.18;}.cls-30{opacity:.68;}.cls-11{stroke-width:20px;}</style></defs><g class="cls-22"><g id="Layer_6"><ellipse class="cls-28" cx="1222.99" cy="1056.88" rx="19.48" ry="7.33"/></g><g id="Layer_50"><path class="cls-14" d="m960.62,1309.61c-81.71,0-169.09-6.85-259.7-20.37-148.33-22.12-285.82-59.58-387.12-105.48-51.5-23.33-91.65-47.99-119.32-73.28-44.66-40.82-49.78-77.91-46.21-101.84,2.62-17.55,12.28-43.25,43.48-66.05,19.35-14.14,45.44-26.06,77.56-35.42,58.38-17.02,137.82-26.01,229.75-26.01,81.71,0,169.08,6.85,259.7,20.37,148.33,22.12,285.82,59.58,387.12,105.48,51.5,23.33,91.65,47.99,119.32,73.28,44.66,40.82,49.78,77.91,46.21,101.84-2.62,17.55-12.28,43.25-43.48,66.05-19.35,14.14-45.44,26.06-77.56,35.42-58.38,17.02-137.82,26.01-229.75,26.01Z"/></g><g id="Layer_49"><path class="cls-26" d="m1271.84,1176.23c-.03.22-.07.44-.11.66-13.91,84.72-266.33,117.32-564.91,72.8-299.34-44.65-531.7-149.92-518.99-235.14,12.71-85.21,265.68-118.1,565.02-73.45,22.87,3.41,45.35,7.18,67.36,11.26,266.06,49.35,463.37,145.17,451.63,223.87Z"/></g><g id="Layer_48"><ellipse class="cls-27" cx="747.83" cy="1081.33" rx="97.38" ry="297.11" transform="translate(-473.04 1569.19) rotate(-77.11)"/></g><g id="Layer_47"><path class="cls-18" d="m1271.84,1176.23c-.03.22-.07.44-.11.66-57.29,43.77-223.48,57.3-413.94,28.9-230.07-34.32-408.42-116.83-398.36-184.3,8.96-60.09,164.36-87.99,360.78-69.13,266.06,49.35,463.37,145.17,451.63,223.87Z"/></g><g id="Layer_46"><ellipse class="cls-24" cx="305" cy="572.72" rx="265" ry="151.93"/></g><g id="Layer_45"><path class="cls-14" d="m1357.17,464.66c0,104.76-27.42,207.44-79.28,296.93-39.05,67.38-91.04,125.92-152.32,171.97,18.29,18.58,22.38,37.71,22.38,51.1,0,18.21-7.46,44.71-42.99,67.59-19.11,12.31-45.35,23.05-77.99,31.94-62.66,17.07-145.34,26.47-232.8,26.47s-170.14-9.4-232.8-26.47c-32.64-8.89-58.88-19.63-77.99-31.94-35.53-22.88-42.99-49.38-42.99-67.59,0-13.39,4.09-32.52,22.38-51.1-22.28-16.74-43.33-35.13-62.96-55-10.42-10.52-20.42-21.45-30.01-32.77-18.93-22.33-36.21-46.17-51.66-71.32-2.62-4.26-5.18-8.55-7.69-12.88-20.85-35.98-37.75-74.09-50.5-113.6-18.97-58.78-28.78-120.68-28.78-183.33,0-15.96.63-32.05,1.9-47.84.03-.44.06-.88.1-1.32.63-7.76,1.43-15.63,2.37-23.36l1.12-9.27,3.44-5.45,1.48-2.34c14.37-22.74,50.44-55.95,197.19-81.74,97.89-17.21,223.66-26.68,354.14-26.68,137.62,0,268.5,10.41,368.52,29.3,50.19,9.48,90.88,20.78,120.94,33.57,26.1,11.1,61.8,30,70.46,65.71l.65,2.68.3,2.75c.22,2.1.43,4.21.64,6.32,1.82,19.05,2.75,38.44,2.75,57.67Z"/></g><g id="Layer_44"><path class="cls-1" d="m1319.13,464.66c0,3.06-.02,6.11-.08,9.16-3.19,197.95-109.94,369.96-266.92,461.24,36.39,14.02,57.78,31.13,57.78,49.6,0,47.5-141.36,86-315.74,86-61.08,0-118.1-4.72-166.42-12.9-62.22-10.53-110-26.79-133.41-46.08h-.01c-10.32-8.5-15.9-17.58-15.9-27.02,0-18.47,21.39-35.58,57.78-49.6-8.43-4.9-16.72-10.04-24.85-15.4-145.63-95.97-242.15-263.88-242.15-455,0-15.4.63-30.65,1.86-45.72.59-7.29,1.33-14.53,2.2-21.73,32.25-51.05,252.6-90.55,519.64-90.55,280.67,0,509.77,43.64,523.06,98.46.21,1.97.41,3.94.6,5.91,1.69,17.64,2.56,35.53,2.56,53.63Z"/></g><g id="Layer_43"><path class="cls-15" d="m1316.59,410.16c0,.29,0,.58-.02.87-2.36,56.76-235.91,102.63-523.67,102.63s-499.28-41.67-521.83-94.72c-1.24-2.89-1.86-5.82-1.86-8.78,0-4.39,1.38-8.71,4.06-12.95,32.25-51.05,252.6-90.55,519.63-90.55,280.67,0,509.77,43.64,523.07,98.46.41,1.67.62,3.35.62,5.04Z"/></g><g id="Layer_42"><path class="cls-2" d="m1320.32,432.85l-67.67,33.31c-17.67,6.17-157.04,42.22-171.44,45.58l-106.22,19.11s-10.55,16.93-28.82,42.65c-2.71-.38-5.49-.58-8.35-.58-25.13,0-45.5,15.22-45.5,34,0,8.71,4.39,16.65,11.59,22.66-27.62,34.56-61.59,73.11-98.83,106.72-35.34,4.97-60.26,17-60.26,31.06,0,4.17,2.21,8.17,6.22,11.85-71.23,51.15-172.82,109.79-239.87,140.65,8.13,5.36,16.42,10.5,24.85,15.4-36.39,14.02-57.78,31.13-57.78,49.6,0,9.44,5.58,18.52,15.9,27.02h.01c.84-.08,51.41-5.17,120.83-23.02,70-18,75.33,10,71.33,22-2.04,6.12-23.66,32.51-58.75,47.1,48.32,8.18,105.34,12.9,166.42,12.9,174.38,0,315.74-38.5,315.74-86,0-18.47-21.39-35.58-57.78-49.6,156.98-91.28,279.04-273.07,268.37-502.4Z"/></g><g id="Layer_41"><ellipse class="cls-1" cx="933.56" cy="607.77" rx="28.94" ry="23"/></g><g id="Layer_40"><circle class="cls-1" cx="1122.83" cy="856.76" r="16.33"/></g><g id="Layer_39"><circle class="cls-1" cx="1096.06" cy="879.77" r="12"/></g><g id="Layer_38"><path class="cls-6" d="m320.21,480.35c-12.26-1.99-23.23,7.82-22.53,20.22,2.86,50.42,23.49,196.99,125.49,313.43,131.21,149.79-200.89-275.78,93.33-260,210.78,11.3,62.92-18.08-74.57-45.78-64.78-13.05-100.7-24.46-121.73-27.86Z"/></g><g id="Layer_37"><path class="cls-8" d="m441.83,528.32c0,1.41-.82,2.68-2.1,3.27-.5.23-1.08.5-1.74.81-10.18,4.82-45.23,4.42-64.49,27.26-14.48,17.16-15.67,54.02-15,79.67,1.56,60.07-27.51-80.6-38.09-118.71-1.24-4.45,2.42-8.74,7.01-8.23l111.22,12.36c1.82.2,3.2,1.74,3.2,3.57h0Z"/></g><g id="Layer_36"><path class="cls-13" d="m851.9,753.55c-.19-33.29.37-59.05,1.66-77.26-20.05-.18-36.98,0-50.77.55-4.6.19-8.1-1.06-10.49-3.73-2.39-2.66-3.63-5.79-3.73-9.38-.09-3.59.97-6.85,3.17-9.8,2.21-2.94,5.52-4.51,9.93-4.69,15.82-.55,37.8-.73,65.95-.55,8.57.06,16.56.1,23.98.12-12.96-44.89-41.61-76.09-74.86-76.09-45.43,0-82.25,58.2-82.25,130s36.82,130,82.25,130c12.72,0,24.76-4.57,35.52-12.71,0-12.82-.11-34.97-.37-66.46Z"/><path class="cls-13" d="m881.15,676.57c-1.29,17.66-1.84,43.23-1.66,76.71.1,12.46.18,23.47.24,33.05,12.02-22.6,19.27-51.76,19.27-83.6,0-8.97-.57-17.72-1.67-26.18-5.09.01-10.48.02-16.18.02Z"/></g><g id="Layer_35"><path class="cls-13" d="m1067.05,799.04c-1.83-2.25-2.44-5.22-1.83-8.9,4.49-24.22,8.05-44.58,10.69-61.07-8.96,6.86-19,10.42-30.15,10.7-11.11-.02-20.55-2.65-28.31-7.88-7.77-5.24-13.38-12.08-16.84-20.55-3.46-8.46-4.52-17.56-3.16-27.3,2.05-14.16,9.02-25.61,20.91-34.36,5.61-4.11,12.64-6.89,21.07-8.32,8.43-1.44,17.48-1.11,27.13.98,6.43,1.39,11.59,3.38,15.48,5.96,1,.67,2.22,1.57,3.64,2.68-10.13-46.04-33.35-78.25-60.38-78.25-36.34,0-65.8,58.21-65.8,130s29.46,130,65.8,130c16.57,0,31.72-12.11,43.29-32.09-.55-.47-1.06-1-1.54-1.59Z"/><path class="cls-13" d="m1072.9,669.47l-3.28-2.66c-1.54-.94-4.06-1.78-7.57-2.51-6.73-1.43-12.77-1.8-18.11-1.11-7.19,1.07-12.8,3.94-16.83,8.62-4.03,4.68-6.55,9.89-7.56,15.62-.82,5.46-.32,10.47,1.52,15.05,1.83,4.58,4.8,8.21,8.9,10.9,4.1,2.68,9.23,3.95,15.41,3.82,5.56-.06,10.68-1.69,15.35-4.86,4.67-3.18,8.48-7.59,11.43-13.23,1.93-3.51,4.35-11.55,7.25-24.11-.13-.16-.33-.34-.61-.53l-5.91-5.01Z"/></g><g id="Layer_34"><path class="cls-25" d="m990.73,907.73c0,9.37-5.89,17.9-15.57,24.32-10.27,6.82-24.81,11.26-41.06,11.78-1.08.04-2.17.06-3.26.06-14.52,0-27.83-3.12-38.2-8.31h-.01c-8.41-4.21-14.88-9.79-18.48-16.16-2.08-3.67-3.2-7.6-3.2-11.69,0-10.49,7.39-19.93,19.2-26.54,5.74-3.21,12.53-5.75,20.02-7.42.42-.09.84-.18,1.26-.27,6.09-1.26,12.62-1.94,19.41-1.94s12.78.63,18.65,1.79c.53.1,1.05.21,1.56.32,6.17,1.34,11.87,3.27,16.92,5.68,13.86,6.62,22.76,16.87,22.76,28.38Z"/></g><g id="Layer_33"><path class="cls-14" d="m951.05,873.67c-.09,1.6-.16,3.08-.21,4.46-.38-1.39-.83-2.98-1.35-4.78-5.87-1.16-12.14-1.79-18.65-1.79s-13.32.68-19.41,1.94c-.44,1.21-.81,2.29-1.11,3.24-.04-.9-.09-1.89-.15-2.97-7.49,1.67-14.28,4.21-20.02,7.42.23,1.44.5,2.89.79,4.33.8,3.93,1.79,7.51,2.97,10.74,1.17,3.23,2.62,5.85,4.35,7.85,1.72,2.01,3.72,3.01,6,3.01,1.68,0,3.43-.62,5.24-1.85,1.8-1.23,3.61-2.85,5.42-4.85s3.56-4.26,5.24-6.76c1.69-2.5,3.26-4.98,4.74-7.45,1.47-2.46,2.77-4.81,3.91-7.04,1.14-2.23,2.04-4.12,2.71-5.66.51,2.54,1.29,5.74,2.34,9.58,1.05,3.86,2.38,7.61,3.98,11.26,1.59,3.66,3.47,6.8,5.61,9.42,2.15,2.61,4.57,3.92,7.26,3.92,1.94,0,3.87-1.17,5.81-3.52,1.94-2.35,3.79-5.37,5.55-9.06,1.77-3.7,3.39-7.84,4.86-12.42.36-1.11.71-2.23,1.04-3.34-5.05-2.41-10.75-4.34-16.92-5.68Z"/></g><g id="Layer_32"><path class="cls-14" d="m926.21,920.17c-.83-1.38-1.98-2.59-3.47-3.62-1.49-1.03-3.18-1.88-5.07-2.54-1.89-.67-3.84-1.14-5.84-1.43-4-.56-7.37-.32-10.12.73-2.74,1.04-5.31,2.57-7.7,4.57.07-.92.03-1.94-.11-3.08-.15-1.14-.45-2.25-.9-3.32-.46-1.07-1.13-2.02-2.01-2.85-.88-.84-2.03-1.37-3.44-1.62-2.57-.44-4.66-.3-6.28.41s-2.92,1.71-3.91,3c-.99,1.28-1.71,2.72-2.15,4.32-.45,1.59-.78,3.05-1.01,4.38-.02.1-.03.2-.05.3,3.6,6.37,10.07,11.95,18.48,16.16h.01c.31-1.07.62-1.88.92-2.44.6-1.02,1.37-2.01,2.31-3,.94-.98,2-1.84,3.2-2.56,1.19-.73,2.48-1.28,3.87-1.66,1.38-.38,2.91-.46,4.58-.23.93.1,1.74.31,2.45.65.71.34,1.42.7,2.13,1.07.78.38,1.57.75,2.37,1.1.79.35,1.77.6,2.95.74,2.49.37,4.7.19,6.62-.53,1.92-.73,2.96-2.06,3.13-4.02.19-1.64-.13-3.15-.96-4.53Z"/><path class="cls-14" d="m888.82,940.64c-.08.13-.18.27-.28.41-.52.81-1.02,1.69-1.48,2.64-.56.97-1.05,1.9-1.48,2.78-.43.89-.84,1.57-1.25,2.03-.35.52-.85,1.11-1.54,1.75-.67.64-1.51,1.19-2.5,1.64-.99.46-2.16.75-3.5.87-1.33.12-2.88-.06-4.65-.57-1.36-.39-2.46-.89-3.3-1.52-.84-.63-1.46-1.32-1.87-2.08-.41-.76-.66-1.58-.74-2.46-.08-.88-.04-1.74.09-2.6.16-.89.38-1.76.65-2.61.27-.85.57-1.65.89-2.4.31-.75.64-1.42.97-2.02.34-.61.6-1.1.78-1.47.5-1.22.94-2.46,1.33-3.73.37-1.21.83-2.39,1.37-3.52,2.88,4.43,8.66,8.88,16.51,12.85Z"/></g><g id="Layer_31"><path class="cls-14" d="m981.25,908.38c-.28-.9-.97-1.56-2.07-1.98-1.1-.42-2.46-.38-4.06.12-1.53.48-3.07,1.33-4.63,2.55-1.55,1.23-3.07,2.65-4.55,4.26-1.48,1.61-2.9,3.28-4.26,4.99-1.36,1.71-2.62,3.32-3.78,4.83-1.16,1.52-2.2,2.78-3.11,3.81-.91,1.02-1.65,1.62-2.21,1.8-.28-.3-.53-.85-.78-1.65-.25-.79-.51-1.67-.76-2.63-.26-.96-.5-1.89-.74-2.77-.23-.89-.41-1.55-.55-2-.21-.65-.48-1.53-.82-2.62-.35-1.1-.78-2.27-1.3-3.5-.51-1.24-1.12-2.46-1.8-3.67-.69-1.21-1.5-2.24-2.43-3.1-.93-.86-2-1.47-3.21-1.83-1.22-.36-2.55-.31-3.99.14-2.01.63-3.59,1.57-4.74,2.83-1.15,1.27-1.96,2.7-2.43,4.3-.47,1.6-.69,3.29-.65,5.09.03,1.8.17,3.53.43,5.2.26,1.67.58,3.2.97,4.59.39,1.38.72,2.5.98,3.35,1.08,3.71,2.03,7.47,2.86,11.26.15.7.31,1.39.48,2.08,16.25-.52,30.79-4.96,41.06-11.78-1.89-1.08-3.49-1.95-4.78-2.61,1.04-1.48,2.26-3.13,3.67-4.97,1.41-1.84,2.72-3.72,3.92-5.66,1.2-1.94,2.16-3.81,2.87-5.62.71-1.81.85-3.41.41-4.81Z"/><path class="cls-14" d="m992.92,950.62c-.72.89-1.99,1.6-3.8,2.12-1.35.38-2.84.52-4.48.42-1.64-.1-3.37-.35-5.17-.77-1.8-.41-3.58-.93-5.36-1.56-1.78-.64-3.45-1.28-5.02-1.93-1.56-.65-2.97-1.28-4.24-1.88-1.26-.6-2.26-1.1-3.01-1.48-.8.74-1.7,1.42-2.69,2.04-.99.62-1.96,1.28-2.87,1.97.37.72.84,1.75,1.39,3.08.55,1.34.87,2.73.93,4.16.07,1.44-.34,2.82-1.19,4.15-.86,1.33-2.59,2.37-5.2,3.11-2.06.59-3.85.64-5.37.15-1.52-.49-2.83-1.2-3.9-2.13-1.08-.93-1.94-1.94-2.59-3.04-.66-1.09-1.13-1.93-1.44-2.51-1.07-2.07-2.04-4.17-2.89-6.3,16.2-1.36,30.52-5.38,40.48-10.82.27.08.54.17.82.27,2.31.77,4.58,1.65,6.81,2.63,2.22.98,4.22,1.98,5.97,3.01,1.77,1.03,2.88,1.99,3.33,2.89.37.72.19,1.53-.52,2.42Z"/></g><g id="Layer_30"><path class="cls-8" d="m902.96,883.03c-.2.04-.29-.24-.1-.3,6.27-2.16,22.65-6.86,23.5-3.73,1.08,4-14.24,24.95-16.58,24-2.06-.83,21.47-26.07-6.82-19.96Z"/></g><g id="Layer_29"><path class="cls-8" d="m947.33,879.49c5.22-.31,9.28.26,12,.83,2.66.57,4.57,1.25,5.25,2.83.49,1.14.16,2.31-.08,3.08-1.78,5.66-4.75,9.83-4.75,9.83-6.35,8.92-6.05,8.44-6.17,8.28-.58-.78,8.08-11.1,4.5-18.61-1.8-3.77-6.45-5.44-10.75-6.25Z"/></g><g id="Layer_27"><ellipse class="cls-17" cx="734.5" cy="840.43" rx="60.12" ry="24.04"/></g><g id="Layer_26"><ellipse class="cls-20" cx="1096.06" cy="832.72" rx="29.89" ry="16.24"/></g><g id="Layer_25"><path class="cls-7" d="m227,443.66c.48-5.5,6.88-47.33,3-47.33-32.56,0-93.44,12.06-137.11,50.75-49.14,43.53,44.87-26.25,89.21-21.46,34,3.67,43.24,37.04,44.9,18.04Z"/></g><g id="Layer_24"><path class="cls-5" d="m180.08,413.28c-.67.13-.94-.82-.3-1.05,14.72-5.29,41.8-15.03,45.56-11.52,5.17,4.83.06,40.06-2.11,40.39-2.03.31,2.03-36.67-43.15-27.82Z"/></g><g id="Layer_23"><path class="cls-31" d="m311.83,764.88l-38.6-81.22-59.84-9.22s6.22,83.78,30,86.89c23.78,3.11,68.44,3.56,68.44,3.56Z"/></g><g id="Layer_21"><path class="cls-4" d="m945.06,396.33c0,35.43-264,35.43-264,0s264-35.43,264,0Z"/></g><g id="Layer_20"><ellipse class="cls-11" cx="813.06" cy="396.99" rx="298.67" ry="61"/></g><g id="Layer_19"><ellipse class="cls-10" cx="818.72" cy="403.66" rx="407.11" ry="89.67"/></g><g id="Layer_18"><rect class="cls-16" x="1080.07" y="914.48" width="205.38" height="218.75" rx="40" ry="40" transform="translate(2206.62 -158.9) rotate(90)"/></g><g id="Layer_17"><rect class="cls-14" x="1065.63" y="920.97" width="205.38" height="218.75" rx="40" ry="40" transform="translate(2198.66 -137.97) rotate(90)"/></g><g id="Layer_16"><path class="cls-29" d="m1252.59,982.19v96.31c0,15.95-12.94,28.89-28.9,28.89h-110.74c-15.96,0-28.89-12.94-28.89-28.89v-96.31c0-15.95,12.93-28.89,28.89-28.89h110.74c1.4,0,2.78.1,4.12.29h0c14.01,2,24.78,14.05,24.78,28.6Z"/></g><g id="Layer_15"><circle class="cls-19" cx="335.94" cy="980.33" r="15.78"/></g><g id="Layer_14"><ellipse class="cls-19" cx="292.74" cy="1006.28" rx="43.21" ry="41.72"/></g><g id="Layer_13"><ellipse class="cls-19" cx="353.94" cy="964.55" rx="18" ry="17.38"/></g><g id="Layer_12"><ellipse class="cls-12" cx="1136" cy="1017.66" rx="18.83" ry="14.33"/></g><g id="Layer_11"><ellipse class="cls-12" cx="1201.59" cy="1017.66" rx="18.83" ry="12.69"/></g><g id="Layer_10"><path class="cls-16" d="m1157.25,1064.19c-.97,7.2,2.02,14.33,7.95,18.59,3.08,2.21,7.23,3.55,10.93,2.23s6.3-4.46,7.68-8.11c1.69-4.46,1.69-9.71,1.32-14.4-.11-1.35-1.07-2.5-2.5-2.5-1.27,0-2.61,1.15-2.5,2.5.33,4.21.42,8.86-1.07,12.88-1.07,2.89-3.74,5.67-7.06,5.07-6.41-1.15-10.75-8.82-9.93-14.93.18-1.34-.32-2.68-1.75-3.08-1.16-.32-2.89.4-3.08,1.75h0Z"/></g><g id="Layer_9"><path class="cls-23" d="m1111.5,1030.35s11.67-30.02,45.67-3.02"/></g><g id="Layer_8"><path class="cls-23" d="m1180.68,1030.35s11.67-30.02,45.67-3.02"/></g><g id="Layer_7"><ellipse class="cls-28" cx="1113.61" cy="1060.66" rx="25.56" ry="7.33"/></g><g id="Layer_5"><path class="cls-30" d="m1252.59,982.19v96.31c0,15.95-12.94,28.89-28.9,28.89h-94.85s50-10.4,71.66-49.73c20.81-37.77,26.87-99.24,27.31-104.06,14.01,1.99,24.78,14.04,24.78,28.59Z"/><path class="cls-9" d="m537.13,428.02c-17.04-6.52-32.28-16.39-30.56-34.55s.77-42.19-8.43-70.63c-20-61.78-91.03-68.57-76.51-131.98s130.51-156.25,130.51-156.25c0,0,806-122.28,698,92.84-63.83,127.15-30.41,109.47-29.67,117.31,1.67,17.67,2.76-2.93-53.28,48-137.04,124.54-7.66,115.12-13.04,135.88-2.85,11.02-188.88,32.77-361.23,29.22-104.66-2.16-201-8.87-255.77-29.83Z"/></g><g id="Layer_4"><path class="cls-3" d="m1139.17,962.99c-1.67,0-40.84-7.13-45,31-4.17,38.17,3.5,26.67,3.5,26.67,0,0-6.33-27.33,15.94-42.67,24.41-16.8,25.56-15,25.56-15Z"/></g><g id="Layer_3"><polyline class="cls-21" points="1128.84 1126.55 1128.84 1185.33 1092.93 1185.33"/></g><g id="Layer_2"><polyline class="cls-21" points="1215.5 1118.99 1215.5 1186.99 1172.76 1186.99"/></g></g></svg>