<?xml version="1.0" encoding="UTF-8"?><svg xmlns="http://www.w3.org/2000/svg" viewBox="0 0 233.19 272.83"><defs><style>.cls-1{fill:#fff;opacity:.34;}.cls-2{opacity:.47;}.cls-2,.cls-3{fill:#815f3d;}.cls-4{fill:#775434;}.cls-5{stroke:#815f3d;stroke-width:14px;}.cls-5,.cls-6,.cls-7{fill:none;}.cls-5,.cls-7{stroke-miterlimit:10;}.cls-6{isolation:isolate;}.cls-7{stroke:#775434;stroke-width:8px;}.cls-8{fill:#ebcf92;}.cls-9,.cls-10{fill:#b3925a;}.cls-10{mix-blend-mode:multiply;opacity:.68;}</style></defs><g class="cls-6"><g id="Layer_2"><g id="Layer_6"><ellipse class="cls-8" cx="164.05" cy="135.71" rx="19.48" ry="7.33"/></g><g id="Layer_18"><rect class="cls-4" x="21.13" y="-6.68" width="205.38" height="218.75" rx="40" ry="40" transform="translate(226.5 -21.13) rotate(90)"/></g><g id="Layer_17"><rect class="cls-3" x="6.68" y="-.2" width="205.38" height="218.75" rx="40" ry="40" transform="translate(218.55 -.2) rotate(90)"/></g><g id="Layer_16"><path class="cls-9" d="m193.64,61.02v96.31c0,15.95-12.94,28.89-28.9,28.89H54c-15.96,0-28.89-12.94-28.89-28.89V61.02c0-15.95,12.93-28.89,28.89-28.89h110.74c1.4,0,2.78.1,4.12.29h0c14.01,2,24.78,14.05,24.78,28.6Z"/></g><g id="Layer_12"><ellipse class="cls-2" cx="77.05" cy="96.49" rx="18.83" ry="14.33"/></g><g id="Layer_11"><ellipse class="cls-2" cx="142.65" cy="96.49" rx="18.83" ry="12.69"/></g><g id="Layer_10"><path class="cls-4" d="m98.31,143.02c-.97,7.2,2.02,14.33,7.95,18.59,3.08,2.21,7.23,3.55,10.93,2.23s6.3-4.46,7.68-8.11c1.69-4.46,1.69-9.71,1.32-14.4-.11-1.35-1.07-2.5-2.5-2.5-1.27,0-2.61,1.15-2.5,2.5.33,4.21.42,8.86-1.07,12.88-1.07,2.89-3.74,5.67-7.06,5.07-6.41-1.15-10.75-8.82-9.93-14.93.18-1.34-.32-2.68-1.75-3.08-1.16-.32-2.89.4-3.08,1.75h0Z"/></g><g id="Layer_9"><path class="cls-7" d="m52.55,109.18s11.67-30.02,45.67-3.02"/></g><g id="Layer_8"><path class="cls-7" d="m121.73,109.18s11.67-30.02,45.67-3.02"/></g><g id="Layer_7"><ellipse class="cls-8" cx="54.67" cy="139.49" rx="25.56" ry="7.33"/></g><g id="Layer_5"><path class="cls-10" d="m193.64,61.02v96.31c0,15.95-12.94,28.89-28.9,28.89h-94.85s50-10.4,71.66-49.73c20.81-37.77,26.87-99.24,27.31-104.06,14.01,1.99,24.78,14.04,24.78,28.59Z"/></g><g id="Layer_4"><path class="cls-1" d="m80.22,41.83c-1.67,0-40.84-7.13-45,31-4.17,38.17,3.5,26.67,3.5,26.67,0,0-6.33-27.33,15.94-42.67,24.41-16.8,25.56-15,25.56-15Z"/></g><g id="Layer_3"><polyline class="cls-5" points="69.89 205.38 69.89 264.16 33.98 264.16"/></g><g id="Layer_2-2"><polyline class="cls-5" points="156.55 197.82 156.55 265.83 113.81 265.83"/></g></g></g></svg>