<?xml version="1.0" encoding="UTF-8"?>
<!DOCTYPE svg PUBLIC "-//W3C//DTD SVG 1.1//EN" "http://www.w3.org/Graphics/SVG/1.1/DTD/svg11.dtd">
<svg xmlns="http://www.w3.org/2000/svg" version="1.1" width="84px" height="90px" style="shape-rendering:geometricPrecision; text-rendering:geometricPrecision; image-rendering:optimizeQuality; fill-rule:evenodd; clip-rule:evenodd" xmlns:xlink="http://www.w3.org/1999/xlink">
<g><path style="opacity:0.908" fill="#fefffe" d="M 83.5,18.5 C 83.5,36.8333 83.5,55.1667 83.5,73.5C 81.5999,80.7468 76.9333,85.2468 69.5,87C 49.8088,87.8094 30.1421,87.6427 10.5,86.5C 8.58011,85.3306 6.58011,84.3306 4.5,83.5C 3.78378,81.518 2.61712,79.8513 1,78.5C 0.333333,57.1667 0.333333,35.8333 1,14.5C 2.52586,10.3074 5.3592,7.47409 9.5,6C 30.8333,5.33333 52.1667,5.33333 73.5,6C 78.5728,8.89267 81.9061,13.0593 83.5,18.5 Z M 35.5,19.5 C 37.5,19.5 39.5,19.5 41.5,19.5C 40.3836,22.6641 38.717,25.6641 36.5,28.5C 32.9123,25.8878 32.579,22.8878 35.5,19.5 Z M 42.5,26.5 C 44.2884,25.3775 46.2884,25.2109 48.5,26C 48.9662,27.2988 48.9662,28.7988 48.5,30.5C 46.1667,30.5 43.8333,30.5 41.5,30.5C 41.3505,29.448 41.5172,28.448 42,27.5C 43.049,29.1066 44.549,29.7733 46.5,29.5C 46.5,28.5 46.5,27.5 46.5,26.5C 45.1667,26.5 43.8333,26.5 42.5,26.5 Z M 30.5,35.5 C 37.6549,34.3448 44.9882,34.1782 52.5,35C 49.0155,36.1323 45.3489,36.6323 41.5,36.5C 37.7509,36.4648 34.0843,36.1315 30.5,35.5 Z M 31.5,40.5 C 37.8421,40.3338 44.1754,40.5005 50.5,41C 52.5447,42.6667 54.378,44.5001 56,46.5C 56.1667,49.8333 56.3333,53.1667 56.5,56.5C 56.7127,61.1878 56.0461,65.6878 54.5,70C 45.8333,72 37.1667,72 28.5,70C 27.351,61.5787 27.1843,53.0787 28,44.5C 29.0113,43.6634 30.1779,43.33 31.5,43.5C 31.5,42.5 31.5,41.5 31.5,40.5 Z"/></g>
<g><path style="opacity:0.743" fill="#fefffe" d="M 37.5,47.5 C 40.3433,50.0613 43.1767,50.0613 46,47.5C 51.8697,49.9334 53.0363,53.9334 49.5,59.5C 46.8232,61.6779 44.3232,64.0113 42,66.5C 37.2519,63.5857 33.7519,59.5857 31.5,54.5C 32.143,50.866 34.143,48.5327 37.5,47.5 Z"/></g>
</svg>
