<?xml version="1.0" encoding="utf-8"?>
<!-- Generator: Adobe Illustrator 28.2.0, SVG Export Plug-In . SVG Version: 6.00 Build 0)  -->
<svg version="1.1" id="Layer_1" xmlns="http://www.w3.org/2000/svg" xmlns:xlink="http://www.w3.org/1999/xlink" x="0px" y="0px"
	 viewBox="0 0 1080 1080" style="enable-background:new 0 0 1080 1080;" xml:space="preserve">
<style type="text/css">
	.st0{fill:#FFFFFF;}
</style>
<g>
	<g>
		<path class="st0" d="M620.16,433.19l42.11-47.32c19.1-21.46,35.73-44.87,50.37-69.46c10.26-17.24,21.95-27.24,49.26-27.24h44.34
			l-47.21,66.21C727.58,402.43,677.59,431.48,620.16,433.19L620.16,433.19z"/>
		<path class="st0" d="M723.94,418.1c0,0,42.52-23.32,71.32-76.81s60.35-54.86,60.35-54.86h52.12c0,0-39.78,85.04-108.35,106.98
			S723.94,418.1,723.94,418.1z"/>
		<path class="st0" d="M614.67,396l87.78-107.29h-10.21c-24.67,0-47.92,11.55-62.83,31.21l-15.14,19.96
			c-10.21,13.46-11.89,31.55-4.33,46.66L614.67,396z"/>
		<path class="st0" d="M307.6,289.63l-0.15-0.3c0,0-68.88-0.3-91.74-0.3c-4,0-7.99,0.81-11.85,2.15
			c-14.91,5.17-25.8,17.34-30.13,31.93c-2.52,8.5-1.71,17.63,2.06,25.65l21.33,33.23c0,0,15.98-30.5,32.61-34.75
			c42.98-10.97,76.17,9.8,95.1,28.35c46.63,45.72,67.66,81.08,67.66,81.08l4.86,8.78c0,0,68.35,106.08,115.66,147.83
			c86.23,76.09,198.51,162.02,283.21,180.31L522.32,289.63H307.6z"/>
	</g>
</g>
</svg>
