<?xml version="1.0" encoding="UTF-8"?><svg id="Layer_2" xmlns="http://www.w3.org/2000/svg" viewBox="0 0 129.04 97.47"><defs><style>.cls-1{fill:#fed16b;}.cls-2{fill:none;stroke:#fed16b;stroke-miterlimit:10;stroke-width:9px;}.cls-3{fill:#fff;isolation:isolate;opacity:.2;}</style></defs><g id="Layer_34"><path class="cls-2" d="m124.54,40.67c0,9.37-5.89,17.9-15.57,24.32-10.27,6.82-24.81,11.26-41.06,11.78-1.08.04-2.17.06-3.26.06-14.52,0-27.83-3.12-38.2-8.31h-.01c-8.41-4.21-14.88-9.79-18.48-16.16-2.08-3.67-3.2-7.6-3.2-11.69,0-10.49,7.39-19.93,19.2-26.54,5.74-3.21,12.53-5.75,20.02-7.42.42-.09.84-.18,1.26-.27,6.09-1.26,12.62-1.94,19.41-1.94s12.78.63,18.65,1.79c.53.1,1.05.21,1.56.32,6.17,1.34,11.87,3.27,16.92,5.68,13.86,6.62,22.76,16.87,22.76,28.38Z"/></g><g id="Layer_33"><path class="cls-1" d="m84.86,6.61c-.09,1.6-.16,3.08-.21,4.46-.38-1.39-.83-2.98-1.35-4.78-5.87-1.16-12.14-1.79-18.65-1.79s-13.32.68-19.41,1.94c-.44,1.21-.81,2.29-1.11,3.24-.04-.9-.09-1.89-.15-2.97-7.49,1.67-14.28,4.21-20.02,7.42.23,1.44.5,2.89.79,4.33.8,3.93,1.79,7.51,2.97,10.74,1.17,3.23,2.62,5.85,4.35,7.85,1.72,2.01,3.72,3.01,6,3.01,1.68,0,3.43-.62,5.24-1.85,1.8-1.23,3.61-2.85,5.42-4.85s3.56-4.26,5.24-6.76c1.69-2.5,3.26-4.98,4.74-7.45,1.47-2.46,2.77-4.81,3.91-7.04s2.04-4.12,2.71-5.66c.51,2.54,1.29,5.74,2.34,9.58,1.05,3.86,2.38,7.61,3.98,11.26,1.59,3.66,3.47,6.8,5.61,9.42,2.15,2.61,4.57,3.92,7.26,3.92,1.94,0,3.87-1.17,5.81-3.52,1.94-2.35,3.79-5.37,5.55-9.06,1.77-3.7,3.39-7.84,4.86-12.42.36-1.11.71-2.23,1.04-3.34-5.05-2.41-10.75-4.34-16.92-5.68Z"/></g><g id="Layer_32"><path class="cls-1" d="m60.02,53.11c-.83-1.38-1.98-2.59-3.47-3.62s-3.18-1.88-5.07-2.54c-1.89-.67-3.84-1.14-5.84-1.43-4-.56-7.37-.32-10.12.73-2.74,1.04-5.31,2.57-7.7,4.57.07-.92.03-1.94-.11-3.08-.15-1.14-.45-2.25-.9-3.32-.46-1.07-1.13-2.02-2.01-2.85-.88-.84-2.03-1.37-3.44-1.62-2.57-.44-4.66-.3-6.28.41s-2.92,1.71-3.91,3c-.99,1.28-1.71,2.72-2.15,4.32-.45,1.59-.78,3.05-1.01,4.38-.02.1-.03.2-.05.3,3.6,6.37,10.07,11.95,18.48,16.16h.01c.31-1.07.62-1.88.92-2.44.6-1.02,1.37-2.01,2.31-3,.94-.98,2-1.84,3.2-2.56,1.19-.73,2.48-1.28,3.87-1.66,1.38-.38,2.91-.46,4.58-.23.93.1,1.74.31,2.45.65s1.42.7,2.13,1.07c.78.38,1.57.75,2.37,1.1.79.35,1.77.6,2.95.74,2.49.37,4.7.19,6.62-.53,1.92-.73,2.96-2.06,3.13-4.02.19-1.64-.13-3.15-.96-4.53Z"/><path class="cls-1" d="m22.63,73.58c-.08.13-.18.27-.28.41-.52.81-1.02,1.69-1.48,2.64-.56.97-1.05,1.9-1.48,2.78-.43.89-.84,1.57-1.25,2.03-.35.52-.85,1.11-1.54,1.75-.67.64-1.51,1.19-2.5,1.64-.99.46-2.16.75-3.5.87-1.33.12-2.88-.06-4.65-.57-1.36-.39-2.46-.89-3.3-1.52s-1.46-1.32-1.87-2.08c-.41-.76-.66-1.58-.74-2.46-.08-.88-.04-1.74.09-2.6.16-.89.38-1.76.65-2.61s.57-1.65.89-2.4c.31-.75.64-1.42.97-2.02.34-.61.6-1.1.78-1.47.5-1.22.94-2.46,1.33-3.73.37-1.21.83-2.39,1.37-3.52,2.88,4.43,8.66,8.88,16.51,12.85h0Z"/></g><g id="Layer_31"><path class="cls-1" d="m115.06,41.32c-.28-.9-.97-1.56-2.07-1.98s-2.46-.38-4.06.12c-1.53.48-3.07,1.33-4.63,2.55-1.55,1.23-3.07,2.65-4.55,4.26-1.48,1.61-2.9,3.28-4.26,4.99s-2.62,3.32-3.78,4.83c-1.16,1.52-2.2,2.78-3.11,3.81-.91,1.02-1.65,1.62-2.21,1.8-.28-.3-.53-.85-.78-1.65-.25-.79-.51-1.67-.76-2.63-.26-.96-.5-1.89-.74-2.77-.23-.89-.41-1.55-.55-2-.21-.65-.48-1.53-.82-2.62-.35-1.1-.78-2.27-1.3-3.5-.51-1.24-1.12-2.46-1.8-3.67-.69-1.21-1.5-2.24-2.43-3.1-.93-.86-2-1.47-3.21-1.83-1.22-.36-2.55-.31-3.99.14-2.01.63-3.59,1.57-4.74,2.83-1.15,1.27-1.96,2.7-2.43,4.3s-.69,3.29-.65,5.09c.03,1.8.17,3.53.43,5.2.26,1.67.58,3.2.97,4.59.39,1.38.72,2.5.98,3.35,1.08,3.71,2.03,7.47,2.86,11.26.15.7.31,1.39.48,2.08,16.25-.52,30.79-4.96,41.06-11.78-1.89-1.08-3.49-1.95-4.78-2.61,1.04-1.48,2.26-3.13,3.67-4.97,1.41-1.84,2.72-3.72,3.92-5.66s2.16-3.81,2.87-5.62c.71-1.81.85-3.41.41-4.81Z"/><path class="cls-1" d="m126.73,83.56c-.72.89-1.99,1.6-3.8,2.12-1.35.38-2.84.52-4.48.42-1.64-.1-3.37-.35-5.17-.77-1.8-.41-3.58-.93-5.36-1.56-1.78-.64-3.45-1.28-5.02-1.93-1.56-.65-2.97-1.28-4.24-1.88-1.26-.6-2.26-1.1-3.01-1.48-.8.74-1.7,1.42-2.69,2.04-.99.62-1.96,1.28-2.87,1.97.37.72.84,1.75,1.39,3.08.55,1.34.87,2.73.93,4.16.07,1.44-.34,2.82-1.19,4.15-.86,1.33-2.59,2.37-5.2,3.11-2.06.59-3.85.64-5.37.15-1.52-.49-2.83-1.2-3.9-2.13-1.08-.93-1.94-1.94-2.59-3.04-.66-1.09-1.13-1.93-1.44-2.51-1.07-2.07-2.04-4.17-2.89-6.3,16.2-1.36,30.52-5.38,40.48-10.82.27.08.54.17.82.27,2.31.77,4.58,1.65,6.81,2.63,2.22.98,4.22,1.98,5.97,3.01,1.77,1.03,2.88,1.99,3.33,2.89.37.72.19,1.53-.52,2.42h.01Z"/></g><g id="Layer_30"><path class="cls-3" d="m36.77,15.97c-.2.04-.29-.24-.1-.3,6.27-2.16,22.65-6.86,23.5-3.73,1.08,4-14.24,24.95-16.58,24-2.06-.83,21.47-26.07-6.82-19.96h0Z"/></g><g id="Layer_29"><path class="cls-3" d="m81.14,12.43c5.22-.31,9.28.26,12,.83,2.66.57,4.57,1.25,5.25,2.83.49,1.14.16,2.31-.08,3.08-1.78,5.66-4.75,9.83-4.75,9.83-6.35,8.92-6.05,8.44-6.17,8.28-.58-.78,8.08-11.1,4.5-18.61-1.8-3.77-6.45-5.44-10.75-6.25h0Z"/></g></svg>